<?xml version="1.0" encoding="UTF-8"?><svg xmlns="http://www.w3.org/2000/svg" xmlns:xlink="http://www.w3.org/1999/xlink" fill-opacity="1" color-rendering="auto" color-interpolation="auto" text-rendering="auto" stroke="black" stroke-linecap="square" width="757" stroke-miterlimit="10" shape-rendering="auto" stroke-opacity="1" fill="black" stroke-dasharray="none" font-weight="normal" stroke-width="1" height="237" font-family="'Dialog'" font-style="normal" stroke-linejoin="miter" font-size="12px" stroke-dashoffset="0" image-rendering="auto">
  <!--Generated by ySVG 2.6-->
  <defs id="genericDefs"/>
  <g>
    <defs id="defs1">
      <clipPath clipPathUnits="userSpaceOnUse" id="clipPath1">
        <path d="M0 0 L757 0 L757 237 L0 237 L0 0 Z"/>
      </clipPath>
      <clipPath clipPathUnits="userSpaceOnUse" id="clipPath2">
        <path d="M266 116 L1023 116 L1023 353 L266 353 L266 116 Z"/>
      </clipPath>
      <clipPath clipPathUnits="userSpaceOnUse" id="clipPath3">
        <path d="M815 239 L1008 239 L1008 329 L815 329 L815 239 Z"/>
      </clipPath>
      <clipPath clipPathUnits="userSpaceOnUse" id="clipPath4">
        <path d="M281 230 L461 230 L461 337 L281 337 L281 230 Z"/>
      </clipPath>
      <clipPath clipPathUnits="userSpaceOnUse" id="clipPath5">
        <path d="M583 131 L711 131 L711 221 L583 221 L583 131 Z"/>
      </clipPath>
    </defs>
    <g fill="white" text-rendering="geometricPrecision" shape-rendering="geometricPrecision" transform="translate(-266,-116)" stroke="white">
      <rect x="266" width="757" height="237" y="116" clip-path="url(#clipPath2)" stroke="none"/>
    </g>
    <g id="y.node.0">
      <a target="_blank" xlink:type="simple" xlink:href="urn:objecttype:wozobject" xlink:show="new">
        <g fill="rgb(255,255,199)" text-rendering="geometricPrecision" shape-rendering="geometricPrecision" transform="matrix(1,0,0,1,-266,-116)" stroke="rgb(255,255,199)">
          <rect x="815" width="193" height="90" y="239" stroke="none"/>
        </g>
        <g text-rendering="geometricPrecision" stroke-miterlimit="1.45" shape-rendering="geometricPrecision" transform="matrix(1,0,0,1,-266,-116)" stroke-linecap="butt">
          <rect fill="none" x="815" width="193" height="90" y="239"/>
          <text x="861.001" xml:space="preserve" y="255.6016" clip-path="url(#clipPath3)" font-family="sans-serif" stroke="none">&lt;&lt;Objecttype&gt;&gt;</text>
        </g>
        <g>
          <g font-size="13px" stroke-linecap="butt" transform="matrix(1,0,0,1,-266,-116)" text-rendering="geometricPrecision" font-family="sans-serif" shape-rendering="geometricPrecision" font-weight="bold" stroke-miterlimit="1.45">
            <text x="870.2085" xml:space="preserve" y="279.7012" clip-path="url(#clipPath3)" stroke="none">WOZ-Object</text>
          </g>
        </g>
        <g text-rendering="geometricPrecision" shape-rendering="geometricPrecision" transform="matrix(1,0,0,1,-266,-116)">
          <line y2="287" fill="none" x1="816" clip-path="url(#clipPath3)" x2="1007" y1="287"/>
          <text stroke-linecap="butt" x="820" y="304.0449" clip-path="url(#clipPath3)" font-family="sans-serif" stroke="none" stroke-miterlimit="1.45" xml:space="preserve">Objectnummer: Objectnummer</text>
          <line y2="311" fill="none" x1="816" clip-path="url(#clipPath3)" x2="1007" y1="311"/>
        </g>
      </a>
    </g>
    <g id="y.node.1">
      <a target="_blank" xlink:type="simple" xlink:href="urn:objecttype:persoon" xlink:show="new">
        <g fill="rgb(255,255,199)" text-rendering="geometricPrecision" shape-rendering="geometricPrecision" transform="matrix(1,0,0,1,-266,-116)" stroke="rgb(255,255,199)">
          <rect x="281" width="180" height="107" y="230.5" stroke="none"/>
        </g>
        <g text-rendering="geometricPrecision" stroke-miterlimit="1.45" shape-rendering="geometricPrecision" transform="matrix(1,0,0,1,-266,-116)" stroke-linecap="butt">
          <rect fill="none" x="281" width="180" height="107" y="230.5"/>
          <text x="320.501" xml:space="preserve" y="247.1016" clip-path="url(#clipPath4)" font-family="sans-serif" stroke="none">&lt;&lt;Objecttype&gt;&gt;</text>
        </g>
        <g>
          <g font-size="13px" stroke-linecap="butt" transform="matrix(1,0,0,1,-266,-116)" text-rendering="geometricPrecision" font-family="sans-serif" shape-rendering="geometricPrecision" font-weight="bold" stroke-miterlimit="1.45">
            <text x="344.0034" xml:space="preserve" y="271.2012" clip-path="url(#clipPath4)" stroke="none">Persoon</text>
          </g>
        </g>
        <g text-rendering="geometricPrecision" shape-rendering="geometricPrecision" transform="matrix(1,0,0,1,-266,-116)">
          <line y2="278" fill="none" x1="282" clip-path="url(#clipPath4)" x2="460" y1="278"/>
          <text stroke-linecap="butt" x="286" y="295.5449" clip-path="url(#clipPath4)" font-family="sans-serif" stroke="none" stroke-miterlimit="1.45" xml:space="preserve">BSN: BSN</text>
          <text stroke-linecap="butt" x="286" y="309.6777" clip-path="url(#clipPath4)" font-family="sans-serif" stroke="none" stroke-miterlimit="1.45" xml:space="preserve">Achternaam: Achternaam</text>
          <text stroke-linecap="butt" x="286" y="323.8105" clip-path="url(#clipPath4)" font-family="sans-serif" stroke="none" stroke-miterlimit="1.45" xml:space="preserve">Voornaam: Voornaam</text>
          <line y2="331" fill="none" x1="282" clip-path="url(#clipPath4)" x2="460" y1="331"/>
        </g>
      </a>
    </g>
    <g id="y.node.2">
      <a target="_blank" xlink:type="simple" xlink:href="urn:facttype:belang" xlink:show="new">
        <g fill="rgb(255,255,199)" text-rendering="geometricPrecision" shape-rendering="geometricPrecision" transform="matrix(1,0,0,1,-266,-116)" stroke="rgb(255,255,199)">
          <rect x="583.5" width="128" height="90" y="131" stroke="none"/>
        </g>
        <g text-rendering="geometricPrecision" stroke-miterlimit="1.45" shape-rendering="geometricPrecision" transform="matrix(1,0,0,1,-266,-116)" stroke-linecap="butt">
          <rect fill="none" x="583.5" width="128" height="90" y="131"/>
          <text x="590.9014" xml:space="preserve" y="147.6016" clip-path="url(#clipPath5)" font-family="sans-serif" stroke="none">&lt;&lt;Relatieklasse&gt;&gt;</text>
        </g>
        <g>
          <g font-size="13px" stroke-linecap="butt" transform="matrix(1,0,0,1,-266,-116)" text-rendering="geometricPrecision" font-family="sans-serif" shape-rendering="geometricPrecision" font-weight="bold" stroke-miterlimit="1.45">
            <text x="625.1055" xml:space="preserve" y="171.7012" clip-path="url(#clipPath5)" stroke="none">Belang</text>
          </g>
        </g>
        <g text-rendering="geometricPrecision" shape-rendering="geometricPrecision" transform="matrix(1,0,0,1,-266,-116)">
          <line y2="179" fill="none" x1="584" clip-path="url(#clipPath5)" x2="710" y1="179"/>
          <text stroke-linecap="butt" x="588.5" y="196.0449" clip-path="url(#clipPath5)" font-family="sans-serif" stroke="none" stroke-miterlimit="1.45" xml:space="preserve">Status</text>
          <line y2="203" fill="none" x1="584" clip-path="url(#clipPath5)" x2="710" y1="203"/>
        </g>
      </a>
    </g>
    <g id="y.node.3">
      <a target="_blank" xlink:type="simple" xlink:href="urn:facttype:belang_HELPER" xlink:show="new">
        <g text-rendering="geometricPrecision" shape-rendering="geometricPrecision" transform="matrix(1,0,0,1,-266,-116)">
          <circle r="2.5" cx="647.5" cy="284" stroke="none"/>
          <circle fill="none" stroke-miterlimit="1.45" r="2.5" cx="647.5" cy="284" stroke-linecap="butt"/>
        </g>
      </a>
    </g>
    <g id="y.edge.1">
      <g text-rendering="geometricPrecision" stroke-miterlimit="1.45" shape-rendering="geometricPrecision" transform="matrix(1,0,0,1,-266,-116)" stroke-linecap="butt">
        <path fill="none" d="M461.0178 284 L645 284"/>
      </g>
      <g>
        <g text-rendering="geometricPrecision" stroke-miterlimit="1.45" shape-rendering="geometricPrecision" font-family="sans-serif" transform="matrix(1,0,0,1,-266,-116)" stroke-linecap="butt">
          <text x="468" xml:space="preserve" y="277.9688" stroke="none">belanghebbende</text>
        </g>
      </g>
      <g>
        <g text-rendering="geometricPrecision" stroke-miterlimit="1.45" shape-rendering="geometricPrecision" font-family="sans-serif" transform="matrix(1,0,0,1,-266,-116)" stroke-linecap="butt">
          <text x="468" xml:space="preserve" y="299.1016" stroke="none">1..*</text>
        </g>
      </g>
    </g>
    <g id="y.edge.0">
      <g text-rendering="geometricPrecision" stroke-miterlimit="1.45" shape-rendering="geometricPrecision" transform="matrix(1,0,0,1,-266,-116)" stroke-linecap="butt">
        <path fill="none" d="M647.5 281.5 L647.5 220.9972"/>
      </g>
    </g>
    <g id="y.edge.2">
      <g text-rendering="geometricPrecision" stroke-miterlimit="1.45" shape-rendering="geometricPrecision" transform="matrix(1,0,0,1,-266,-116)" stroke-linecap="butt">
        <path fill="none" d="M650 284 L815.0016 284"/>
      </g>
      <g>
        <g text-rendering="geometricPrecision" stroke-miterlimit="1.45" shape-rendering="geometricPrecision" font-family="sans-serif" transform="matrix(1,0,0,1,-266,-116)" stroke-linecap="butt">
          <text x="787.0352" xml:space="preserve" y="299.1016" stroke="none">0..*</text>
        </g>
      </g>
    </g>
  </g>
</svg>
