<?xml version="1.0" encoding="UTF-8"?><svg xmlns="http://www.w3.org/2000/svg" xmlns:xlink="http://www.w3.org/1999/xlink" fill-opacity="1" color-rendering="auto" color-interpolation="auto" text-rendering="auto" stroke="black" stroke-linecap="square" width="703" stroke-miterlimit="10" shape-rendering="auto" stroke-opacity="1" fill="black" stroke-dasharray="none" font-weight="normal" stroke-width="1" height="198" font-family="'Dialog'" font-style="normal" stroke-linejoin="miter" font-size="12px" stroke-dashoffset="0" image-rendering="auto">
  <!--Generated by ySVG 2.6-->
  <defs id="genericDefs"/>
  <g>
    <defs id="defs1">
      <clipPath clipPathUnits="userSpaceOnUse" id="clipPath1">
        <path d="M0 0 L703 0 L703 198 L0 198 L0 0 Z"/>
      </clipPath>
      <clipPath clipPathUnits="userSpaceOnUse" id="clipPath2">
        <path d="M813 260 L1009 260 L1009 350 L813 350 L813 260 Z"/>
      </clipPath>
      <clipPath clipPathUnits="userSpaceOnUse" id="clipPath3">
        <path d="M336 260 L483 260 L483 350 L336 350 L336 260 Z"/>
      </clipPath>
      <clipPath clipPathUnits="userSpaceOnUse" id="clipPath4">
        <path d="M577 182 L718 182 L718 272 L577 272 L577 182 Z"/>
      </clipPath>
    </defs>
    <g id="y.node.0">
      <a target="_blank" xlink:type="simple" xlink:href="urn:objecttype:organisatie" xlink:show="new">
        <g fill="rgb(255,255,199)" text-rendering="geometricPrecision" shape-rendering="geometricPrecision" transform="matrix(1,0,0,1,-321,-167)" stroke="rgb(255,255,199)">
          <rect x="813" width="196" height="90" y="260" stroke="none"/>
        </g>
        <g text-rendering="geometricPrecision" stroke-miterlimit="1.45" shape-rendering="geometricPrecision" transform="matrix(1,0,0,1,-321,-167)" stroke-linecap="butt">
          <rect fill="none" x="813" width="196" height="90" y="260"/>
          <text x="860.501" xml:space="preserve" y="276.6016" clip-path="url(#clipPath2)" font-family="sans-serif" stroke="none">&lt;&lt;Objecttype&gt;&gt;</text>
        </g>
        <g>
          <g font-size="13px" stroke-linecap="butt" transform="matrix(1,0,0,1,-321,-167)" text-rendering="geometricPrecision" font-family="sans-serif" shape-rendering="geometricPrecision" font-weight="bold" stroke-miterlimit="1.45">
            <text x="872.1492" xml:space="preserve" y="300.7012" clip-path="url(#clipPath2)" stroke="none">Organisatie</text>
          </g>
        </g>
        <g text-rendering="geometricPrecision" shape-rendering="geometricPrecision" transform="matrix(1,0,0,1,-321,-167)">
          <line y2="308" fill="none" x1="814" clip-path="url(#clipPath2)" x2="1008" y1="308"/>
          <text stroke-linecap="butt" x="818" y="325.0449" clip-path="url(#clipPath2)" font-family="sans-serif" stroke="none" stroke-miterlimit="1.45" xml:space="preserve">handelsnaam: CharacterString</text>
          <line y2="332" fill="none" x1="814" clip-path="url(#clipPath2)" x2="1008" y1="332"/>
        </g>
      </a>
    </g>
    <g id="y.node.1">
      <a target="_blank" xlink:type="simple" xlink:href="urn:objecttype:persoon" xlink:show="new">
        <g fill="rgb(255,255,199)" text-rendering="geometricPrecision" shape-rendering="geometricPrecision" transform="matrix(1,0,0,1,-321,-167)" stroke="rgb(255,255,199)">
          <rect x="336" width="147" height="90" y="260" stroke="none"/>
        </g>
        <g text-rendering="geometricPrecision" stroke-miterlimit="1.45" shape-rendering="geometricPrecision" transform="matrix(1,0,0,1,-321,-167)" stroke-linecap="butt">
          <rect fill="none" x="336" width="147" height="90" y="260"/>
          <text x="359.001" xml:space="preserve" y="276.6016" clip-path="url(#clipPath3)" font-family="sans-serif" stroke="none">&lt;&lt;Objecttype&gt;&gt;</text>
        </g>
        <g>
          <g font-size="13px" stroke-linecap="butt" transform="matrix(1,0,0,1,-321,-167)" text-rendering="geometricPrecision" font-family="sans-serif" shape-rendering="geometricPrecision" font-weight="bold" stroke-miterlimit="1.45">
            <text x="346.5916" xml:space="preserve" y="300.7012" clip-path="url(#clipPath3)" stroke="none">Natuurlijk persoon</text>
          </g>
        </g>
        <g text-rendering="geometricPrecision" shape-rendering="geometricPrecision" transform="matrix(1,0,0,1,-321,-167)">
          <line y2="308" fill="none" x1="337" clip-path="url(#clipPath3)" x2="482" y1="308"/>
          <text stroke-linecap="butt" x="341" y="325.0449" clip-path="url(#clipPath3)" font-family="sans-serif" stroke="none" stroke-miterlimit="1.45" xml:space="preserve">naam: CharacterString</text>
          <line y2="332" fill="none" x1="337" clip-path="url(#clipPath3)" x2="482" y1="332"/>
        </g>
      </a>
    </g>
    <g id="y.node.2">
      <a target="_blank" xlink:type="simple" xlink:href="urn:relatieklasse:dienstbetrekking" xlink:show="new">
        <g fill="rgb(255,255,199)" text-rendering="geometricPrecision" shape-rendering="geometricPrecision" transform="matrix(1,0,0,1,-321,-167)" stroke="rgb(255,255,199)">
          <rect x="577" width="141" height="90" y="182.5" stroke="none"/>
        </g>
        <g text-rendering="geometricPrecision" stroke-miterlimit="1.45" shape-rendering="geometricPrecision" transform="matrix(1,0,0,1,-321,-167)" stroke-linecap="butt">
          <rect fill="none" x="577" width="141" height="90" y="182.5"/>
          <text x="590.9014" xml:space="preserve" y="199.1016" clip-path="url(#clipPath4)" font-family="sans-serif" stroke="none">&lt;&lt;Relatieklasse&gt;&gt;</text>
        </g>
        <g>
          <g font-size="13px" stroke-linecap="butt" transform="matrix(1,0,0,1,-321,-167)" text-rendering="geometricPrecision" font-family="sans-serif" shape-rendering="geometricPrecision" font-weight="bold" stroke-miterlimit="1.45">
            <text x="589.4348" xml:space="preserve" y="223.2012" clip-path="url(#clipPath4)" stroke="none">Dienstbetrekking</text>
          </g>
        </g>
        <g text-rendering="geometricPrecision" shape-rendering="geometricPrecision" transform="matrix(1,0,0,1,-321,-167)">
          <line y2="230" fill="none" x1="578" clip-path="url(#clipPath4)" x2="717" y1="230"/>
          <text stroke-linecap="butt" x="582" y="247.5449" clip-path="url(#clipPath4)" font-family="sans-serif" stroke="none" stroke-miterlimit="1.45" xml:space="preserve">arbeidsovereenkomst</text>
          <line y2="255" fill="none" x1="578" clip-path="url(#clipPath4)" x2="717" y1="255"/>
        </g>
      </a>
    </g>
    <g id="y.node.3">
      <a target="_blank" xlink:type="simple" xlink:href="urn:relatieklasse:dienstbetrekking_HELPER" xlink:show="new">
        <g text-rendering="geometricPrecision" shape-rendering="geometricPrecision" transform="matrix(1,0,0,1,-321,-167)">
          <circle r="2.5" cx="647.5" cy="305" stroke="none"/>
          <circle fill="none" stroke-miterlimit="1.45" r="2.5" cx="647.5" cy="305" stroke-linecap="butt"/>
        </g>
      </a>
    </g>
    <g id="y.edge.1">
      <g text-rendering="geometricPrecision" stroke-miterlimit="1.45" shape-rendering="geometricPrecision" transform="matrix(1,0,0,1,-321,-167)" stroke-linecap="butt">
        <path fill="none" d="M482.9744 305 L645 305"/>
      </g>
      <g>
        <g text-rendering="geometricPrecision" stroke-miterlimit="1.45" shape-rendering="geometricPrecision" font-family="sans-serif" transform="matrix(1,0,0,1,-321,-167)" stroke-linecap="butt">
          <text x="490" xml:space="preserve" y="320.1016" stroke="none">1..*</text>
        </g>
      </g>
      <g>
        <g text-rendering="geometricPrecision" stroke-miterlimit="1.45" shape-rendering="geometricPrecision" font-family="sans-serif" transform="matrix(1,0,0,1,-321,-167)" stroke-linecap="butt">
          <text x="490" xml:space="preserve" y="297.9688" stroke="none">werknemer</text>
        </g>
      </g>
    </g>
    <g id="y.edge.0">
      <g text-rendering="geometricPrecision" stroke-miterlimit="1.45" shape-rendering="geometricPrecision" transform="matrix(1,0,0,1,-321,-167)" stroke-linecap="butt">
        <path fill="none" d="M647.5 302.5 L647.5 272.5073"/>
      </g>
    </g>
    <g id="y.edge.2">
      <g text-rendering="geometricPrecision" stroke-miterlimit="1.45" shape-rendering="geometricPrecision" transform="matrix(1,0,0,1,-321,-167)" stroke-linecap="butt">
        <path fill="none" d="M650 305 L813.0294 305"/>
      </g>
      <g>
        <g text-rendering="geometricPrecision" stroke-miterlimit="1.45" shape-rendering="geometricPrecision" font-family="sans-serif" transform="matrix(1,0,0,1,-321,-167)" stroke-linecap="butt">
          <text x="746.1699" xml:space="preserve" y="298.9688" stroke="none">werkgever</text>
        </g>
      </g>
      <g>
        <g text-rendering="geometricPrecision" stroke-miterlimit="1.45" shape-rendering="geometricPrecision" font-family="sans-serif" transform="matrix(1,0,0,1,-321,-167)" stroke-linecap="butt">
          <text x="785.0352" xml:space="preserve" y="320.1016" stroke="none">0..*</text>
        </g>
      </g>
    </g>
  </g>
</svg>
