<?xml version="1.0" encoding="UTF-8"?><svg xmlns="http://www.w3.org/2000/svg" xmlns:xlink="http://www.w3.org/1999/xlink" fill-opacity="1" color-rendering="auto" color-interpolation="auto" text-rendering="auto" stroke="black" stroke-linecap="square" width="703" stroke-miterlimit="10" shape-rendering="auto" stroke-opacity="1" fill="black" stroke-dasharray="none" font-weight="normal" stroke-width="1" height="215" font-family="'Dialog'" font-style="normal" stroke-linejoin="miter" font-size="12px" stroke-dashoffset="0" image-rendering="auto">
  <!--Generated by ySVG 2.6-->
  <defs id="genericDefs"/>
  <g>
    <defs id="defs1">
      <clipPath clipPathUnits="userSpaceOnUse" id="clipPath1">
        <path d="M0 0 L703 0 L703 215 L0 215 L0 0 Z"/>
      </clipPath>
      <clipPath clipPathUnits="userSpaceOnUse" id="clipPath2">
        <path d="M813 230 L1009 230 L1009 320 L813 320 L813 230 Z"/>
      </clipPath>
      <clipPath clipPathUnits="userSpaceOnUse" id="clipPath3">
        <path d="M336 230 L483 230 L483 320 L336 320 L336 230 Z"/>
      </clipPath>
      <clipPath clipPathUnits="userSpaceOnUse" id="clipPath4">
        <path d="M577 137 L718 137 L718 227 L577 227 L577 137 Z"/>
      </clipPath>
    </defs>
    <g id="y.node.0">
      <a target="_blank" xlink:type="simple" xlink:href="urn:objecttype:organisatie" xlink:show="new">
        <g fill="rgb(255,255,199)" text-rendering="geometricPrecision" shape-rendering="geometricPrecision" transform="matrix(1,0,0,1,-321,-122)" stroke="rgb(255,255,199)">
          <rect x="813" width="196" height="90" y="230" stroke="none"/>
        </g>
        <g text-rendering="geometricPrecision" stroke-miterlimit="1.45" shape-rendering="geometricPrecision" transform="matrix(1,0,0,1,-321,-122)" stroke-linecap="butt">
          <rect fill="none" x="813" width="196" height="90" y="230"/>
          <text x="860.501" xml:space="preserve" y="246.6016" clip-path="url(#clipPath2)" font-family="sans-serif" stroke="none">&lt;&lt;Objecttype&gt;&gt;</text>
        </g>
        <g>
          <g font-size="13px" stroke-linecap="butt" transform="matrix(1,0,0,1,-321,-122)" text-rendering="geometricPrecision" font-family="sans-serif" shape-rendering="geometricPrecision" font-weight="bold" stroke-miterlimit="1.45">
            <text x="872.1492" xml:space="preserve" y="270.7012" clip-path="url(#clipPath2)" stroke="none">Organisatie</text>
          </g>
        </g>
        <g text-rendering="geometricPrecision" shape-rendering="geometricPrecision" transform="matrix(1,0,0,1,-321,-122)">
          <line y2="278" fill="none" x1="814" clip-path="url(#clipPath2)" x2="1008" y1="278"/>
          <text stroke-linecap="butt" x="818" y="295.0449" clip-path="url(#clipPath2)" font-family="sans-serif" stroke="none" stroke-miterlimit="1.45" xml:space="preserve">handelsnaam: CharacterString</text>
          <line y2="302" fill="none" x1="814" clip-path="url(#clipPath2)" x2="1008" y1="302"/>
        </g>
      </a>
    </g>
    <g id="y.node.1">
      <a target="_blank" xlink:type="simple" xlink:href="urn:objecttype:persoon" xlink:show="new">
        <g fill="rgb(255,255,199)" text-rendering="geometricPrecision" shape-rendering="geometricPrecision" transform="matrix(1,0,0,1,-321,-122)" stroke="rgb(255,255,199)">
          <rect x="336" width="147" height="90" y="230" stroke="none"/>
        </g>
        <g text-rendering="geometricPrecision" stroke-miterlimit="1.45" shape-rendering="geometricPrecision" transform="matrix(1,0,0,1,-321,-122)" stroke-linecap="butt">
          <rect fill="none" x="336" width="147" height="90" y="230"/>
          <text x="359.001" xml:space="preserve" y="246.6016" clip-path="url(#clipPath3)" font-family="sans-serif" stroke="none">&lt;&lt;Objecttype&gt;&gt;</text>
        </g>
        <g>
          <g font-size="13px" stroke-linecap="butt" transform="matrix(1,0,0,1,-321,-122)" text-rendering="geometricPrecision" font-family="sans-serif" shape-rendering="geometricPrecision" font-weight="bold" stroke-miterlimit="1.45">
            <text x="346.5916" xml:space="preserve" y="270.7012" clip-path="url(#clipPath3)" stroke="none">Natuurlijk persoon</text>
          </g>
        </g>
        <g text-rendering="geometricPrecision" shape-rendering="geometricPrecision" transform="matrix(1,0,0,1,-321,-122)">
          <line y2="278" fill="none" x1="337" clip-path="url(#clipPath3)" x2="482" y1="278"/>
          <text stroke-linecap="butt" x="341" y="295.0449" clip-path="url(#clipPath3)" font-family="sans-serif" stroke="none" stroke-miterlimit="1.45" xml:space="preserve">naam: CharacterString</text>
          <line y2="302" fill="none" x1="337" clip-path="url(#clipPath3)" x2="482" y1="302"/>
        </g>
      </a>
    </g>
    <g id="y.node.2">
      <a target="_blank" xlink:type="simple" xlink:href="urn:relatieklasse:dienstbetrekking" xlink:show="new">
        <g fill="rgb(255,255,199)" text-rendering="geometricPrecision" shape-rendering="geometricPrecision" transform="matrix(1,0,0,1,-321,-122)" stroke="rgb(255,255,199)">
          <rect x="577" width="141" height="90" y="137" stroke="none"/>
        </g>
        <g text-rendering="geometricPrecision" stroke-miterlimit="1.45" shape-rendering="geometricPrecision" transform="matrix(1,0,0,1,-321,-122)" stroke-linecap="butt">
          <rect fill="none" x="577" width="141" height="90" y="137"/>
          <text x="590.9014" xml:space="preserve" y="153.6016" clip-path="url(#clipPath4)" font-family="sans-serif" stroke="none">&lt;&lt;Relatieklasse&gt;&gt;</text>
        </g>
        <g>
          <g font-size="13px" stroke-linecap="butt" transform="matrix(1,0,0,1,-321,-122)" text-rendering="geometricPrecision" font-family="sans-serif" shape-rendering="geometricPrecision" font-weight="bold" stroke-miterlimit="1.45">
            <text x="589.4348" xml:space="preserve" y="177.7012" clip-path="url(#clipPath4)" stroke="none">Dienstbetrekking</text>
          </g>
        </g>
        <g text-rendering="geometricPrecision" shape-rendering="geometricPrecision" transform="matrix(1,0,0,1,-321,-122)">
          <line y2="185" fill="none" x1="578" clip-path="url(#clipPath4)" x2="717" y1="185"/>
          <text stroke-linecap="butt" x="582" y="202.0449" clip-path="url(#clipPath4)" font-family="sans-serif" stroke="none" stroke-miterlimit="1.45" xml:space="preserve">arbeidsovereenkomst</text>
          <line y2="209" fill="none" x1="578" clip-path="url(#clipPath4)" x2="717" y1="209"/>
        </g>
      </a>
    </g>
    <g id="y.node.3">
      <a target="_blank" xlink:type="simple" xlink:href="urn:relatieklasse:dienstbetrekking_HELPER" xlink:show="new">
        <g text-rendering="geometricPrecision" shape-rendering="geometricPrecision" transform="matrix(1,0,0,1,-321,-122)">
          <circle r="2.5" cx="647.5" cy="275" stroke="none"/>
          <circle fill="none" stroke-miterlimit="1.45" r="2.5" cx="647.5" cy="275" stroke-linecap="butt"/>
        </g>
        <g>
          <g text-rendering="geometricPrecision" stroke-miterlimit="1.45" shape-rendering="geometricPrecision" font-family="sans-serif" transform="matrix(1,0,0,1,-321,-122)" stroke-linecap="butt">
            <text x="609.0781" xml:space="preserve" y="288.5428" stroke="none">«Relatiesoort»</text>
            <text x="611.8203" xml:space="preserve" y="302.6756" stroke="none">werkt voor ►</text>
            <text x="602.4951" xml:space="preserve" y="316.8084" stroke="none">◄ heeft in dienst</text>
          </g>
        </g>
      </a>
    </g>
    <g id="y.edge.1">
      <g text-rendering="geometricPrecision" stroke-miterlimit="1.45" shape-rendering="geometricPrecision" transform="matrix(1,0,0,1,-321,-122)" stroke-linecap="butt">
        <path fill="none" d="M482.9744 275 L645 275"/>
      </g>
      <g>
        <g text-rendering="geometricPrecision" stroke-miterlimit="1.45" shape-rendering="geometricPrecision" font-family="sans-serif" transform="matrix(1,0,0,1,-321,-122)" stroke-linecap="butt">
          <text x="490" xml:space="preserve" y="290.1016" stroke="none">1..*</text>
        </g>
      </g>
      <g>
        <g text-rendering="geometricPrecision" stroke-miterlimit="1.45" shape-rendering="geometricPrecision" font-family="sans-serif" transform="matrix(1,0,0,1,-321,-122)" stroke-linecap="butt">
          <text x="490" xml:space="preserve" y="268.9688" stroke="none">werknemer</text>
        </g>
      </g>
    </g>
    <g id="y.edge.0">
      <g text-rendering="geometricPrecision" stroke-miterlimit="1.45" shape-rendering="geometricPrecision" transform="matrix(1,0,0,1,-321,-122)" stroke-linecap="butt">
        <path fill="none" d="M647.5 272.5 L647.5 227.0291"/>
      </g>
    </g>
    <g id="y.edge.2">
      <g text-rendering="geometricPrecision" stroke-miterlimit="1.45" shape-rendering="geometricPrecision" transform="matrix(1,0,0,1,-321,-122)" stroke-linecap="butt">
        <path fill="none" d="M650 275 L813.0294 275"/>
      </g>
      <g>
        <g text-rendering="geometricPrecision" stroke-miterlimit="1.45" shape-rendering="geometricPrecision" font-family="sans-serif" transform="matrix(1,0,0,1,-321,-122)" stroke-linecap="butt">
          <text x="746.1699" xml:space="preserve" y="268.9688" stroke="none">werkgever</text>
        </g>
      </g>
      <g>
        <g text-rendering="geometricPrecision" stroke-miterlimit="1.45" shape-rendering="geometricPrecision" font-family="sans-serif" transform="matrix(1,0,0,1,-321,-122)" stroke-linecap="butt">
          <text x="785.0352" xml:space="preserve" y="290.1016" stroke="none">0..*</text>
        </g>
      </g>
    </g>
  </g>
</svg>
