<?xml version="1.0" encoding="UTF-8"?><svg xmlns="http://www.w3.org/2000/svg" xmlns:xlink="http://www.w3.org/1999/xlink" fill-opacity="1" color-rendering="auto" color-interpolation="auto" text-rendering="auto" stroke="black" stroke-linecap="square" width="920" stroke-miterlimit="10" shape-rendering="auto" stroke-opacity="1" fill="black" stroke-dasharray="none" font-weight="normal" stroke-width="1" height="120" font-family="'Dialog'" font-style="normal" stroke-linejoin="miter" font-size="12px" stroke-dashoffset="0" image-rendering="auto">
  <!--Generated by ySVG 2.6-->
  <defs id="genericDefs"/>
  <g>
    <defs id="defs1">
      <clipPath clipPathUnits="userSpaceOnUse" id="clipPath1">
        <path d="M0 0 L920 0 L920 120 L0 120 L0 0 Z"/>
      </clipPath>
      <clipPath clipPathUnits="userSpaceOnUse" id="clipPath2">
        <path d="M872 260 L1068 260 L1068 350 L872 350 L872 260 Z"/>
      </clipPath>
      <clipPath clipPathUnits="userSpaceOnUse" id="clipPath3">
        <path d="M178 260 L325 260 L325 350 L178 350 L178 260 Z"/>
      </clipPath>
      <clipPath clipPathUnits="userSpaceOnUse" id="clipPath4">
        <path d="M577 260 L718 260 L718 350 L577 350 L577 260 Z"/>
      </clipPath>
    </defs>
    <g id="y.node.0">
      <a target="_blank" xlink:type="simple" xlink:href="urn:objecttype:organisatie" xlink:show="new">
        <g fill="rgb(255,255,199)" text-rendering="geometricPrecision" shape-rendering="geometricPrecision" transform="matrix(1,0,0,1,-163,-245)" stroke="rgb(255,255,199)">
          <rect x="872" width="196" height="90" y="260" stroke="none"/>
        </g>
        <g text-rendering="geometricPrecision" stroke-miterlimit="1.45" shape-rendering="geometricPrecision" transform="matrix(1,0,0,1,-163,-245)" stroke-linecap="butt">
          <rect fill="none" x="872" width="196" height="90" y="260"/>
          <text x="919.501" xml:space="preserve" y="276.6016" clip-path="url(#clipPath2)" font-family="sans-serif" stroke="none">&lt;&lt;Objecttype&gt;&gt;</text>
        </g>
        <g>
          <g font-size="13px" stroke-linecap="butt" transform="matrix(1,0,0,1,-163,-245)" text-rendering="geometricPrecision" font-family="sans-serif" shape-rendering="geometricPrecision" font-weight="bold" stroke-miterlimit="1.45">
            <text x="931.1492" xml:space="preserve" y="300.7012" clip-path="url(#clipPath2)" stroke="none">Organisatie</text>
          </g>
        </g>
        <g text-rendering="geometricPrecision" shape-rendering="geometricPrecision" transform="matrix(1,0,0,1,-163,-245)">
          <line y2="308" fill="none" x1="873" clip-path="url(#clipPath2)" x2="1067" y1="308"/>
          <text stroke-linecap="butt" x="877" y="325.0449" clip-path="url(#clipPath2)" font-family="sans-serif" stroke="none" stroke-miterlimit="1.45" xml:space="preserve">handelsnaam: CharacterString</text>
          <line y2="332" fill="none" x1="873" clip-path="url(#clipPath2)" x2="1067" y1="332"/>
        </g>
      </a>
    </g>
    <g id="y.node.1">
      <a target="_blank" xlink:type="simple" xlink:href="urn:objecttype:persoon" xlink:show="new">
        <g fill="rgb(255,255,199)" text-rendering="geometricPrecision" shape-rendering="geometricPrecision" transform="matrix(1,0,0,1,-163,-245)" stroke="rgb(255,255,199)">
          <rect x="178" width="147" height="90" y="260" stroke="none"/>
        </g>
        <g text-rendering="geometricPrecision" stroke-miterlimit="1.45" shape-rendering="geometricPrecision" transform="matrix(1,0,0,1,-163,-245)" stroke-linecap="butt">
          <rect fill="none" x="178" width="147" height="90" y="260"/>
          <text x="201.001" xml:space="preserve" y="276.6016" clip-path="url(#clipPath3)" font-family="sans-serif" stroke="none">&lt;&lt;Objecttype&gt;&gt;</text>
        </g>
        <g>
          <g font-size="13px" stroke-linecap="butt" transform="matrix(1,0,0,1,-163,-245)" text-rendering="geometricPrecision" font-family="sans-serif" shape-rendering="geometricPrecision" font-weight="bold" stroke-miterlimit="1.45">
            <text x="188.5916" xml:space="preserve" y="300.7012" clip-path="url(#clipPath3)" stroke="none">Natuurlijk persoon</text>
          </g>
        </g>
        <g text-rendering="geometricPrecision" shape-rendering="geometricPrecision" transform="matrix(1,0,0,1,-163,-245)">
          <line y2="308" fill="none" x1="179" clip-path="url(#clipPath3)" x2="324" y1="308"/>
          <text stroke-linecap="butt" x="183" y="325.0449" clip-path="url(#clipPath3)" font-family="sans-serif" stroke="none" stroke-miterlimit="1.45" xml:space="preserve">naam: CharacterString</text>
          <line y2="332" fill="none" x1="179" clip-path="url(#clipPath3)" x2="324" y1="332"/>
        </g>
      </a>
    </g>
    <g id="y.node.2">
      <a target="_blank" xlink:type="simple" xlink:href="urn:relatieklasse:dienstbetrekking" xlink:show="new">
        <g fill="rgb(255,255,199)" text-rendering="geometricPrecision" shape-rendering="geometricPrecision" transform="matrix(1,0,0,1,-163,-245)" stroke="rgb(255,255,199)">
          <rect x="577" width="141" height="90" y="260" stroke="none"/>
        </g>
        <g text-rendering="geometricPrecision" stroke-miterlimit="1.45" shape-rendering="geometricPrecision" transform="matrix(1,0,0,1,-163,-245)" stroke-linecap="butt">
          <rect fill="none" x="577" width="141" height="90" y="260"/>
          <text x="590.9014" xml:space="preserve" y="276.6016" clip-path="url(#clipPath4)" font-family="sans-serif" stroke="none">&lt;&lt;Relatieklasse&gt;&gt;</text>
        </g>
        <g>
          <g font-size="13px" stroke-linecap="butt" transform="matrix(1,0,0,1,-163,-245)" text-rendering="geometricPrecision" font-family="sans-serif" shape-rendering="geometricPrecision" font-weight="bold" stroke-miterlimit="1.45">
            <text x="589.4348" xml:space="preserve" y="300.7012" clip-path="url(#clipPath4)" stroke="none">Dienstbetrekking</text>
          </g>
        </g>
        <g text-rendering="geometricPrecision" shape-rendering="geometricPrecision" transform="matrix(1,0,0,1,-163,-245)">
          <line y2="308" fill="none" x1="578" clip-path="url(#clipPath4)" x2="717" y1="308"/>
          <text stroke-linecap="butt" x="582" y="325.0449" clip-path="url(#clipPath4)" font-family="sans-serif" stroke="none" stroke-miterlimit="1.45" xml:space="preserve">arbeidsovereenkomst</text>
          <line y2="332" fill="none" x1="578" clip-path="url(#clipPath4)" x2="717" y1="332"/>
        </g>
      </a>
    </g>
    <g id="y.edge.0">
      <g text-rendering="geometricPrecision" stroke-miterlimit="1.45" shape-rendering="geometricPrecision" transform="matrix(1,0,0,1,-163,-245)" stroke-linecap="butt">
        <path fill="none" d="M330.0249 305 L571.9979 305"/>
        <path d="M326.0249 305 L338.0249 311 L326.0249 305 L338.0249 299 Z" stroke="none"/>
        <path fill="none" stroke-miterlimit="10" d="M326.0249 305 L338.0249 311 L326.0249 305 L338.0249 299 Z" stroke-linecap="square"/>
        <path d="M575.9979 305 L563.9979 299 L575.9979 305 L563.9979 311 Z" stroke="none"/>
        <path fill="none" stroke-miterlimit="10" d="M575.9979 305 L563.9979 299 L575.9979 305 L563.9979 311 Z" stroke-linecap="square"/>
      </g>
      <g>
        <g text-rendering="geometricPrecision" stroke-miterlimit="1.45" shape-rendering="geometricPrecision" font-family="sans-serif" transform="matrix(1,0,0,1,-163,-245)" stroke-linecap="butt">
          <text x="549.0352" xml:space="preserve" y="320.1016" stroke="none">0..*</text>
        </g>
      </g>
      <g>
        <g text-rendering="geometricPrecision" stroke-miterlimit="1.45" shape-rendering="geometricPrecision" font-family="sans-serif" transform="matrix(1,0,0,1,-163,-245)" stroke-linecap="butt">
          <text x="471.4922" xml:space="preserve" y="297.9688" stroke="none">dienstbetrekking</text>
        </g>
      </g>
      <g>
        <g text-rendering="geometricPrecision" stroke-miterlimit="1.45" shape-rendering="geometricPrecision" font-family="sans-serif" transform="matrix(1,0,0,1,-163,-245)" stroke-linecap="butt">
          <text x="332" xml:space="preserve" y="300.9688" stroke="none">werknemer</text>
        </g>
      </g>
      <g>
        <g text-rendering="geometricPrecision" stroke-miterlimit="1.45" shape-rendering="geometricPrecision" font-family="sans-serif" transform="matrix(1,0,0,1,-163,-245)" stroke-linecap="butt">
          <text x="332" xml:space="preserve" y="318.1016" stroke="none">1..1</text>
        </g>
      </g>
    </g>
    <g id="y.edge.1">
      <g text-rendering="geometricPrecision" stroke-miterlimit="1.45" shape-rendering="geometricPrecision" transform="matrix(1,0,0,1,-163,-245)" stroke-linecap="butt">
        <path fill="none" d="M718.0075 305 L867.0269 305"/>
        <path d="M871.0269 305 L859.0269 299 L871.0269 305 L859.0269 311 Z" stroke="none"/>
        <path fill="none" stroke-miterlimit="10" d="M871.0269 305 L859.0269 299 L871.0269 305 L859.0269 311 Z" stroke-linecap="square"/>
      </g>
      <g>
        <g text-rendering="geometricPrecision" stroke-miterlimit="1.45" shape-rendering="geometricPrecision" font-family="sans-serif" transform="matrix(1,0,0,1,-163,-245)" stroke-linecap="butt">
          <text x="805.1699" xml:space="preserve" y="298.9688" stroke="none">werkgever</text>
        </g>
      </g>
      <g>
        <g text-rendering="geometricPrecision" stroke-miterlimit="1.45" shape-rendering="geometricPrecision" font-family="sans-serif" transform="matrix(1,0,0,1,-163,-245)" stroke-linecap="butt">
          <text x="842.2305" xml:space="preserve" y="320.1016" stroke="none">1..1</text>
        </g>
      </g>
    </g>
  </g>
</svg>
