<?xml version="1.0" encoding="UTF-8"?><svg xmlns="http://www.w3.org/2000/svg" xmlns:xlink="http://www.w3.org/1999/xlink" fill-opacity="1" color-rendering="auto" color-interpolation="auto" text-rendering="auto" stroke="black" stroke-linecap="square" width="703" stroke-miterlimit="10" shape-rendering="auto" stroke-opacity="1" fill="black" stroke-dasharray="none" font-weight="normal" stroke-width="1" height="244" font-family="'Dialog'" font-style="normal" stroke-linejoin="miter" font-size="12px" stroke-dashoffset="0" image-rendering="auto">
  <!--Generated by ySVG 2.6-->
  <defs id="genericDefs"/>
  <g>
    <defs id="defs1">
      <clipPath clipPathUnits="userSpaceOnUse" id="clipPath1">
        <path d="M0 0 L703 0 L703 244 L0 244 L0 0 Z"/>
      </clipPath>
      <clipPath clipPathUnits="userSpaceOnUse" id="clipPath2">
        <path d="M321 122 L1024 122 L1024 366 L321 366 L321 122 Z"/>
      </clipPath>
      <clipPath clipPathUnits="userSpaceOnUse" id="clipPath3">
        <path d="M813 260 L1009 260 L1009 350 L813 350 L813 260 Z"/>
      </clipPath>
      <clipPath clipPathUnits="userSpaceOnUse" id="clipPath4">
        <path d="M336 260 L483 260 L483 350 L336 350 L336 260 Z"/>
      </clipPath>
      <clipPath clipPathUnits="userSpaceOnUse" id="clipPath5">
        <path d="M577 137 L718 137 L718 227 L577 227 L577 137 Z"/>
      </clipPath>
    </defs>
    <g fill="white" text-rendering="geometricPrecision" shape-rendering="geometricPrecision" transform="translate(-321,-122)" stroke="white">
      <rect x="321" width="703" height="244" y="122" clip-path="url(#clipPath2)" stroke="none"/>
    </g>
    <g id="y.node.0">
      <a target="_blank" xlink:type="simple" xlink:href="urn:objecttype:organisatie" xlink:show="new">
        <g fill="rgb(255,255,199)" text-rendering="geometricPrecision" shape-rendering="geometricPrecision" transform="matrix(1,0,0,1,-321,-122)" stroke="rgb(255,255,199)">
          <rect x="813" width="196" height="90" y="260" stroke="none"/>
        </g>
        <g text-rendering="geometricPrecision" stroke-miterlimit="1.45" shape-rendering="geometricPrecision" transform="matrix(1,0,0,1,-321,-122)" stroke-linecap="butt">
          <rect fill="none" x="813" width="196" height="90" y="260"/>
          <text x="860.501" xml:space="preserve" y="276.6016" clip-path="url(#clipPath3)" font-family="sans-serif" stroke="none">&lt;&lt;Objecttype&gt;&gt;</text>
        </g>
        <g>
          <g font-size="13px" stroke-linecap="butt" transform="matrix(1,0,0,1,-321,-122)" text-rendering="geometricPrecision" font-family="sans-serif" shape-rendering="geometricPrecision" font-weight="bold" stroke-miterlimit="1.45">
            <text x="872.1492" xml:space="preserve" y="300.7012" clip-path="url(#clipPath3)" stroke="none">Organisatie</text>
          </g>
        </g>
        <g text-rendering="geometricPrecision" shape-rendering="geometricPrecision" transform="matrix(1,0,0,1,-321,-122)">
          <line y2="308" fill="none" x1="814" clip-path="url(#clipPath3)" x2="1008" y1="308"/>
          <text stroke-linecap="butt" x="818" y="325.0449" clip-path="url(#clipPath3)" font-family="sans-serif" stroke="none" stroke-miterlimit="1.45" xml:space="preserve">handelsnaam: CharacterString</text>
          <line y2="332" fill="none" x1="814" clip-path="url(#clipPath3)" x2="1008" y1="332"/>
        </g>
      </a>
    </g>
    <g id="y.node.1">
      <a target="_blank" xlink:type="simple" xlink:href="urn:objecttype:persoon" xlink:show="new">
        <g fill="rgb(255,255,199)" text-rendering="geometricPrecision" shape-rendering="geometricPrecision" transform="matrix(1,0,0,1,-321,-122)" stroke="rgb(255,255,199)">
          <rect x="336" width="147" height="90" y="260" stroke="none"/>
        </g>
        <g text-rendering="geometricPrecision" stroke-miterlimit="1.45" shape-rendering="geometricPrecision" transform="matrix(1,0,0,1,-321,-122)" stroke-linecap="butt">
          <rect fill="none" x="336" width="147" height="90" y="260"/>
          <text x="359.001" xml:space="preserve" y="276.6016" clip-path="url(#clipPath4)" font-family="sans-serif" stroke="none">&lt;&lt;Objecttype&gt;&gt;</text>
        </g>
        <g>
          <g font-size="13px" stroke-linecap="butt" transform="matrix(1,0,0,1,-321,-122)" text-rendering="geometricPrecision" font-family="sans-serif" shape-rendering="geometricPrecision" font-weight="bold" stroke-miterlimit="1.45">
            <text x="346.5916" xml:space="preserve" y="300.7012" clip-path="url(#clipPath4)" stroke="none">Natuurlijk persoon</text>
          </g>
        </g>
        <g text-rendering="geometricPrecision" shape-rendering="geometricPrecision" transform="matrix(1,0,0,1,-321,-122)">
          <line y2="308" fill="none" x1="337" clip-path="url(#clipPath4)" x2="482" y1="308"/>
          <text stroke-linecap="butt" x="341" y="325.0449" clip-path="url(#clipPath4)" font-family="sans-serif" stroke="none" stroke-miterlimit="1.45" xml:space="preserve">naam: CharacterString</text>
          <line y2="332" fill="none" x1="337" clip-path="url(#clipPath4)" x2="482" y1="332"/>
        </g>
      </a>
    </g>
    <g id="y.node.2">
      <a target="_blank" xlink:type="simple" xlink:href="urn:relatieklasse:dienstbetrekking" xlink:show="new">
        <g fill="rgb(255,255,199)" text-rendering="geometricPrecision" shape-rendering="geometricPrecision" transform="matrix(1,0,0,1,-321,-122)" stroke="rgb(255,255,199)">
          <rect x="577" width="141" height="90" y="137" stroke="none"/>
        </g>
        <g text-rendering="geometricPrecision" stroke-miterlimit="1.45" shape-rendering="geometricPrecision" transform="matrix(1,0,0,1,-321,-122)" stroke-linecap="butt">
          <rect fill="none" x="577" width="141" height="90" y="137"/>
          <text x="590.9014" xml:space="preserve" y="153.6016" clip-path="url(#clipPath5)" font-family="sans-serif" stroke="none">&lt;&lt;Relatieklasse&gt;&gt;</text>
        </g>
        <g>
          <g font-size="13px" stroke-linecap="butt" transform="matrix(1,0,0,1,-321,-122)" text-rendering="geometricPrecision" font-family="sans-serif" shape-rendering="geometricPrecision" font-weight="bold" stroke-miterlimit="1.45">
            <text x="611.1248" xml:space="preserve" y="177.7012" clip-path="url(#clipPath5)" stroke="none">werkt voor</text>
          </g>
        </g>
        <g text-rendering="geometricPrecision" shape-rendering="geometricPrecision" transform="matrix(1,0,0,1,-321,-122)">
          <line y2="185" fill="none" x1="578" clip-path="url(#clipPath5)" x2="717" y1="185"/>
          <text stroke-linecap="butt" x="582" y="202.0449" clip-path="url(#clipPath5)" font-family="sans-serif" stroke="none" stroke-miterlimit="1.45" xml:space="preserve">arbeidsovereenkomst</text>
          <line y2="209" fill="none" x1="578" clip-path="url(#clipPath5)" x2="717" y1="209"/>
        </g>
      </a>
    </g>
    <g id="y.node.3">
      <a target="_blank" xlink:type="simple" xlink:href="urn:relatieklasse:dienstbetrekking_HELPER" xlink:show="new">
        <g text-rendering="geometricPrecision" shape-rendering="geometricPrecision" transform="matrix(1,0,0,1,-321,-122)">
          <circle r="2.5" cx="647.5" cy="275" stroke="none"/>
          <circle fill="none" stroke-miterlimit="1.45" r="2.5" cx="647.5" cy="275" stroke-linecap="butt"/>
        </g>
        <g>
          <g text-rendering="geometricPrecision" stroke-miterlimit="1.45" shape-rendering="geometricPrecision" font-family="sans-serif" transform="matrix(1,0,0,1,-321,-122)" stroke-linecap="butt">
            <text x="611.8203" xml:space="preserve" y="290.1016" stroke="none">werkt voor ►</text>
          </g>
        </g>
      </a>
    </g>
    <g id="y.edge.0">
      <a target="_blank" xlink:type="simple" xlink:href="urn:relatiesoort:heeftWerknemer" xlink:show="new">
        <g text-rendering="geometricPrecision" stroke-miterlimit="1.45" shape-rendering="geometricPrecision" transform="matrix(1,0,0,1,-321,-122)" stroke-linecap="butt">
          <path fill="none" d="M813.014 330.5 L487.9577 330.5"/>
          <path d="M483.9577 330.5 L495.9577 336.5 L483.9577 330.5 L495.9577 324.5 Z" stroke="none"/>
          <path fill="none" stroke-miterlimit="10" d="M483.9577 330.5 L495.9577 336.5 L483.9577 330.5 L495.9577 324.5 Z" stroke-linecap="square"/>
        </g>
        <g>
          <g text-rendering="geometricPrecision" stroke-miterlimit="1.45" shape-rendering="geometricPrecision" font-family="sans-serif" transform="matrix(1,0,0,1,-321,-122)" stroke-linecap="butt">
            <text x="593.3379" xml:space="preserve" y="345.6016" stroke="none">◄ heeft werknemer</text>
          </g>
        </g>
        <g>
          <g text-rendering="geometricPrecision" stroke-miterlimit="1.45" shape-rendering="geometricPrecision" font-family="sans-serif" transform="matrix(1,0,0,1,-321,-122)" stroke-linecap="butt">
            <text x="607.0781" xml:space="preserve" y="324.4688" stroke="none">«Relatiesoort»</text>
          </g>
        </g>
        <g>
          <g text-rendering="geometricPrecision" stroke-miterlimit="1.45" shape-rendering="geometricPrecision" font-family="sans-serif" transform="matrix(1,0,0,1,-321,-122)" stroke-linecap="butt">
            <text x="490" xml:space="preserve" y="345.6016" stroke="none">1..*</text>
          </g>
        </g>
        <g>
          <g text-rendering="geometricPrecision" stroke-miterlimit="1.45" shape-rendering="geometricPrecision" font-family="sans-serif" transform="matrix(1,0,0,1,-321,-122)" stroke-linecap="butt">
            <text x="785.0352" xml:space="preserve" y="345.6016" stroke="none">0..*</text>
          </g>
        </g>
      </a>
    </g>
    <g id="y.edge.2">
      <g text-rendering="geometricPrecision" stroke-miterlimit="1.45" shape-rendering="geometricPrecision" transform="matrix(1,0,0,1,-321,-122)" stroke-linecap="butt">
        <path fill="none" d="M482.9651 275 L645 275"/>
      </g>
      <g>
        <g text-rendering="geometricPrecision" stroke-miterlimit="1.45" shape-rendering="geometricPrecision" font-family="sans-serif" transform="matrix(1,0,0,1,-321,-122)" stroke-linecap="butt">
          <text x="490" xml:space="preserve" y="290.1016" stroke="none">1..*</text>
        </g>
      </g>
    </g>
    <g id="y.edge.1">
      <g text-rendering="geometricPrecision" stroke-miterlimit="1.45" shape-rendering="geometricPrecision" transform="matrix(1,0,0,1,-321,-122)" stroke-linecap="butt">
        <path fill="none" d="M647.5 272.5 L647.5 227.0291"/>
      </g>
    </g>
    <g id="y.edge.3">
      <g text-rendering="geometricPrecision" stroke-miterlimit="1.45" shape-rendering="geometricPrecision" transform="matrix(1,0,0,1,-321,-122)" stroke-linecap="butt">
        <path fill="none" d="M650 275 L807.9882 275"/>
        <path d="M811.9882 275 L799.9882 269 L811.9882 275 L799.9882 281 Z" stroke="none"/>
        <path fill="none" stroke-miterlimit="10" d="M811.9882 275 L799.9882 269 L811.9882 275 L799.9882 281 Z" stroke-linecap="square"/>
      </g>
      <g>
        <g text-rendering="geometricPrecision" stroke-miterlimit="1.45" shape-rendering="geometricPrecision" font-family="sans-serif" transform="matrix(1,0,0,1,-321,-122)" stroke-linecap="butt">
          <text x="746.1699" xml:space="preserve" y="268.9688" stroke="none">werkgever</text>
        </g>
      </g>
      <g>
        <g text-rendering="geometricPrecision" stroke-miterlimit="1.45" shape-rendering="geometricPrecision" font-family="sans-serif" transform="matrix(1,0,0,1,-321,-122)" stroke-linecap="butt">
          <text x="785.0352" xml:space="preserve" y="290.1016" stroke="none">0..*</text>
        </g>
      </g>
    </g>
  </g>
</svg>
