<?xml version="1.0" encoding="UTF-8"?><svg xmlns="http://www.w3.org/2000/svg" xmlns:xlink="http://www.w3.org/1999/xlink" fill-opacity="1" color-rendering="auto" color-interpolation="auto" text-rendering="auto" stroke="black" stroke-linecap="square" width="694" stroke-miterlimit="10" shape-rendering="auto" stroke-opacity="1" fill="black" stroke-dasharray="none" font-weight="normal" stroke-width="1" height="190" font-family="'Dialog'" font-style="normal" stroke-linejoin="miter" font-size="12px" stroke-dashoffset="0" image-rendering="auto">
  <!--Generated by ySVG 2.6-->
  <defs id="genericDefs"/>
  <g>
    <defs id="defs1">
      <clipPath clipPathUnits="userSpaceOnUse" id="clipPath1">
        <path d="M0 0 L694 0 L694 190 L0 190 L0 0 Z"/>
      </clipPath>
    </defs>
    <g id="y.node.0">
      <a target="_blank" xlink:type="simple" xlink:href="urn:facttype:persoon" xlink:show="new">
        <g fill="rgb(245,245,245)" text-rendering="geometricPrecision" shape-rendering="geometricPrecision" transform="matrix(1,0,0,1,-295,-403)" stroke="rgb(245,245,245)">
          <circle r="30" cx="903.3936" cy="474" stroke="none"/>
        </g>
        <g>
          <g font-size="15px" stroke-linecap="butt" transform="matrix(1,0,0,1,-295,-403)" text-rendering="geometricPrecision" font-family="sans-serif" shape-rendering="geometricPrecision" stroke-miterlimit="1.45">
            <text x="835.4944" xml:space="preserve" y="438.8359" stroke="none">Natuurlijk persoon</text>
          </g>
        </g>
        <g/>
        <g text-rendering="geometricPrecision" stroke-miterlimit="1.45" shape-rendering="geometricPrecision" transform="matrix(1,0,0,1,-295,-403)" stroke-linecap="butt">
          <circle fill="none" r="30" cx="903.3936" cy="474"/>
        </g>
      </a>
    </g>
    <g id="y.node.1">
      <g fill="rgb(255,204,0)" text-rendering="geometricPrecision" shape-rendering="geometricPrecision" transform="matrix(1,0,0,1,-295,-403)" stroke="rgb(255,204,0)">
        <rect x="888.3936" width="30" height="30" y="459" stroke="none"/>
      </g>
      <g text-rendering="geometricPrecision" stroke-miterlimit="1.45" shape-rendering="geometricPrecision" transform="matrix(1,0,0,1,-295,-403)" stroke-linecap="butt">
        <rect fill="none" x="888.3936" width="30" height="30" y="459"/>
      </g>
      <g/>
    </g>
    <g id="y.node.2">
      <a target="_blank" xlink:type="simple" xlink:href="urn:facttype:organisatie" xlink:show="new">
        <g fill="rgb(245,245,245)" text-rendering="geometricPrecision" shape-rendering="geometricPrecision" transform="matrix(1,0,0,1,-295,-403)" stroke="rgb(245,245,245)">
          <circle r="30" cx="357" cy="470" stroke="none"/>
        </g>
        <g>
          <g font-size="15px" stroke-linecap="butt" transform="matrix(1,0,0,1,-295,-403)" text-rendering="geometricPrecision" font-family="sans-serif" shape-rendering="geometricPrecision" stroke-miterlimit="1.45">
            <text x="315.3472" xml:space="preserve" y="434.8359" stroke="none">Organisatie</text>
          </g>
        </g>
        <g/>
        <g text-rendering="geometricPrecision" stroke-miterlimit="1.45" shape-rendering="geometricPrecision" transform="matrix(1,0,0,1,-295,-403)" stroke-linecap="butt">
          <circle fill="none" r="30" cx="357" cy="470"/>
        </g>
      </a>
    </g>
    <g id="y.node.3">
      <g fill="rgb(255,204,0)" text-rendering="geometricPrecision" shape-rendering="geometricPrecision" transform="matrix(1,0,0,1,-295,-403)" stroke="rgb(255,204,0)">
        <rect x="342" width="30" height="30" y="455" stroke="none"/>
      </g>
      <g text-rendering="geometricPrecision" stroke-miterlimit="1.45" shape-rendering="geometricPrecision" transform="matrix(1,0,0,1,-295,-403)" stroke-linecap="butt">
        <rect fill="none" x="342" width="30" height="30" y="455"/>
      </g>
      <g/>
    </g>
    <g id="y.node.4">
      <a target="_blank" xlink:type="simple" xlink:href="urn:facttype:dienstbetrekking" xlink:show="new">
        <g>
          <g font-size="15px" stroke-linecap="butt" transform="matrix(1,0,0,1,-295,-403)" text-rendering="geometricPrecision" font-family="sans-serif" shape-rendering="geometricPrecision" stroke-miterlimit="1.45">
            <text x="568.6294" xml:space="preserve" y="438.8359" stroke="none">dienstbetrekking</text>
          </g>
        </g>
        <g>
          <g text-rendering="geometricPrecision" stroke-miterlimit="1.45" shape-rendering="geometricPrecision" font-family="sans-serif" transform="matrix(1,0,0,1,-295,-403)" stroke-linecap="butt">
            <text x="524.7749" xml:space="preserve" y="507.6016" stroke="none">[Werknemer] werkt voor [werkgever]</text>
            <text x="485.2563" xml:space="preserve" y="521.7344" stroke="none">[Natuurlijk persoon] heeft werkgever [organisatie]</text>
            <text x="487.77" xml:space="preserve" y="535.8672" stroke="none">[Organisatie] heeft  [natuurlijk persoon] in dienst</text>
          </g>
        </g>
      </a>
    </g>
    <g id="y.node.5">
      <g fill="rgb(255,204,0)" text-rendering="geometricPrecision" shape-rendering="geometricPrecision" transform="matrix(1,0,0,1,-295,-403)" stroke="rgb(255,204,0)">
        <rect x="562" width="68" height="30" y="455" stroke="none"/>
      </g>
      <g text-rendering="geometricPrecision" stroke-miterlimit="1.45" shape-rendering="geometricPrecision" transform="matrix(1,0,0,1,-295,-403)" stroke-linecap="butt">
        <rect fill="none" x="562" width="68" height="30" y="455"/>
      </g>
      <g>
        <g text-rendering="geometricPrecision" stroke-miterlimit="1.45" shape-rendering="geometricPrecision" font-family="sans-serif" transform="matrix(1,0,0,1,-295,-403)" stroke-linecap="butt">
          <text x="566.085" xml:space="preserve" y="474.5352" stroke="none">werkgever</text>
        </g>
      </g>
    </g>
    <g id="y.node.6">
      <g text-rendering="geometricPrecision" shape-rendering="geometricPrecision" transform="matrix(1,0,0,1,-295,-403)">
        <rect x="562" width="68" height="2" y="449" stroke="none"/>
        <rect x="562" stroke-linecap="butt" y="449" fill="none" width="68" height="2" stroke-miterlimit="1.45"/>
      </g>
    </g>
    <g id="y.node.7">
      <g fill="rgb(255,204,0)" text-rendering="geometricPrecision" shape-rendering="geometricPrecision" transform="matrix(1,0,0,1,-295,-403)" stroke="rgb(255,204,0)">
        <rect x="630" width="68" height="30" y="455" stroke="none"/>
      </g>
      <g text-rendering="geometricPrecision" stroke-miterlimit="1.45" shape-rendering="geometricPrecision" transform="matrix(1,0,0,1,-295,-403)" stroke-linecap="butt">
        <rect fill="none" x="630" width="68" height="30" y="455"/>
      </g>
      <g>
        <g text-rendering="geometricPrecision" stroke-miterlimit="1.45" shape-rendering="geometricPrecision" font-family="sans-serif" transform="matrix(1,0,0,1,-295,-403)" stroke-linecap="butt">
          <text x="631.6064" xml:space="preserve" y="474.5352" stroke="none">werknemer</text>
        </g>
      </g>
    </g>
    <g id="y.node.8">
      <g text-rendering="geometricPrecision" shape-rendering="geometricPrecision" transform="matrix(1,0,0,1,-295,-403)">
        <rect x="630" width="68" height="2" y="449" stroke="none"/>
        <rect x="630" stroke-linecap="butt" y="449" fill="none" width="68" height="2" stroke-miterlimit="1.45"/>
      </g>
    </g>
    <g id="y.node.9">
      <g fill="rgb(245,245,245)" text-rendering="geometricPrecision" shape-rendering="geometricPrecision" transform="matrix(1,0,0,1,-295,-403)" stroke="rgb(245,245,245)">
        <ellipse rx="47" ry="15" cx="357" cy="563" stroke="none"/>
      </g>
      <g text-rendering="geometricPrecision" stroke-miterlimit="1.45" stroke-dasharray="6,2" shape-rendering="geometricPrecision" transform="matrix(1,0,0,1,-295,-403)" stroke-linecap="butt">
        <ellipse rx="47" fill="none" ry="15" cx="357" cy="563"/>
      </g>
      <g>
        <g text-rendering="geometricPrecision" stroke-miterlimit="1.45" shape-rendering="geometricPrecision" font-family="sans-serif" transform="matrix(1,0,0,1,-295,-403)" stroke-linecap="butt">
          <text x="318.375" xml:space="preserve" y="567.5352" stroke="none">handelsnaam</text>
        </g>
      </g>
    </g>
    <g id="y.node.10">
      <g fill="rgb(245,245,245)" text-rendering="geometricPrecision" shape-rendering="geometricPrecision" transform="matrix(1,0,0,1,-295,-403)" stroke="rgb(245,245,245)">
        <ellipse rx="22.5" ry="15" cx="903.3936" cy="563" stroke="none"/>
      </g>
      <g text-rendering="geometricPrecision" stroke-miterlimit="1.45" stroke-dasharray="6,2" shape-rendering="geometricPrecision" transform="matrix(1,0,0,1,-295,-403)" stroke-linecap="butt">
        <ellipse rx="22.5" fill="none" ry="15" cx="903.3936" cy="563"/>
      </g>
      <g>
        <g text-rendering="geometricPrecision" stroke-miterlimit="1.45" shape-rendering="geometricPrecision" font-family="sans-serif" transform="matrix(1,0,0,1,-295,-403)" stroke-linecap="butt">
          <text x="887.4414" xml:space="preserve" y="567.5352" stroke="none">naam</text>
        </g>
      </g>
    </g>
    <g id="y.edge.0">
      <g text-rendering="geometricPrecision" stroke-miterlimit="1.45" shape-rendering="geometricPrecision" transform="matrix(1,0,0,1,-295,-403)" stroke-linecap="butt">
        <path fill="none" d="M562 470 L391 470"/>
        <path d="M383 470 C383 467.7909 384.7909 466 387 466 C389.2091 466 391 467.7909 391 470 C391 472.2091 389.2091 474 387 474 C384.7909 474 383 472.2091 383 470 Z" stroke="none"/>
      </g>
    </g>
    <g id="y.edge.3">
      <g text-rendering="geometricPrecision" stroke-miterlimit="1.45" shape-rendering="geometricPrecision" transform="matrix(1,0,0,1,-295,-403)" stroke-linecap="butt">
        <path fill="none" d="M698 470.5681 L873.3978 473.4988"/>
      </g>
    </g>
    <g id="y.edge.1">
      <g text-rendering="geometricPrecision" stroke-miterlimit="1.45" shape-rendering="geometricPrecision" transform="matrix(1,0,0,1,-295,-403)" stroke-linecap="butt">
        <path fill="none" d="M357 485 L357 548"/>
      </g>
    </g>
    <g id="y.edge.2">
      <g text-rendering="geometricPrecision" stroke-miterlimit="1.45" shape-rendering="geometricPrecision" transform="matrix(1,0,0,1,-295,-403)" stroke-linecap="butt">
        <path fill="none" d="M903.3936 489 L903.3936 548"/>
      </g>
    </g>
  </g>
</svg>
